<svg width="583" height="583" viewBox="0 0 583 583" fill="none" xmlns="http://www.w3.org/2000/svg">
<circle cx="291.5" cy="291.5" r="291.5" fill="white"/>
<path d="M209.925 321.937C213.138 319.25 216.469 317.1 219.919 315.487C223.376 313.606 227.073 312.665 231.01 312.665H304.248L266.755 350.157H140.362C138.262 350.157 137.359 349.485 137.652 348.141C138.215 346.529 140.787 343.169 145.368 338.063H140.643L71.7062 407H76.4312C80.4501 403.506 83.3877 401.356 85.244 400.55C87.1003 399.743 89.0784 399.34 91.1784 399.34H287.66L292.497 394.503C288.047 393.965 285.835 393.159 285.86 392.084C285.891 390.74 286.848 389.127 288.729 387.246L476.593 199.382C478.474 197.501 480.609 196.023 482.996 194.948C485.39 193.604 489.349 192.663 494.874 192.126L499.712 187.288H303.231C301.131 187.288 300.228 186.616 300.521 185.272C301.084 183.66 303.387 180.569 307.431 176H302.706L232.56 246.147H237.285C242.379 241.578 246.122 238.621 248.516 237.277C251.179 235.665 253.56 234.859 255.66 234.859H382.054L348.593 268.319H275.356C271.418 268.319 269.468 267.513 269.506 265.901C269.549 264.019 270.653 261.735 272.815 259.047H268.09L205.2 321.937H209.925Z" fill="#4CA6A8"/>
</svg>
